# xmcd
#
# Track frame offsets: 
#        150
#        15062
#        32180
#        45462
#        63552
#        79347
#        95080
#        106222
#        121100
#        140695
#        154482
#        171705
#
# Disc length: 2607 seconds
#
# Revision: 0
# Processed by: cddbd v1.4PL0 Copyright (c) Steve Scherf et al.
# Submitted via: ExactAudioCopy v0.90b3
#
DISCID=a10a2d0c
DTITLE=Rosanne Cash - Interiors - The Full Sessions
DYEAR=1990
DGENRE=Country
TTITLE0=On The Inside
TTITLE1=Dance With The Tiger
TTITLE2=On The Surface
TTITLE3=Real Woman
TTITLE4=This World
TTITLE5=What We Really Want
TTITLE6=Land Of Nightmares
TTITLE7=Mirror Image
TTITLE8=I Want A Cure
TTITLE9=Paralyzed
TTITLE10=Portrait (Bonus Track)
TTITLE11=All Come True (Bonus Track)
EXTD=
EXTT0=
EXTT1=
EXTT2=
EXTT3=
EXTT4=
EXTT5=
EXTT6=
EXTT7=
EXTT8=
EXTT9=
EXTT10=
EXTT11=
PLAYORDER=
